<svg xmlns="http://www.w3.org/2000/svg">
    <symbol id="facebook-logo" viewBox="0 0 24 24" xmlns="http://www.w3.org/2000/svg">
        <path d="M12.8192 24H1.32462C0.592836 24 0 23.4068 0 22.6753V1.32461C0 0.592925 0.592929 0 1.32462 0H22.6755C23.407 0 24 0.592925 24 1.32461V22.6753C24 23.4069 23.4069 24 22.6755 24H16.5597V14.7059H19.6793L20.1464 11.0838H16.5597V8.77132C16.5597 7.72264 16.8509 7.008 18.3546 7.008L20.2727 7.00717V3.76755C19.9409 3.7234 18.8024 3.62479 17.4778 3.62479C14.7124 3.62479 12.8192 5.31276 12.8192 8.4126V11.0838H9.69156V14.7059H12.8192V24Z" fill="black"/>
    </symbol>

    <symbol id="twitter-logo" viewBox="0 0 24 24" xmlns="http://www.w3.org/2000/svg">
        <path id="facebook-logo" d="M24 4.36764C23.1182 4.76923 22.1687 5.04081 21.1727 5.16215C22.1898 4.5381 22.9702 3.54857 23.3379 2.36981C22.3856 2.94763 21.3333 3.368 20.2092 3.59335C19.3133 2.6125 18.0328 2 16.6156 2C13.8982 2 11.6936 4.26074 11.6936 7.04875C11.6936 7.44456 11.7359 7.82882 11.8204 8.19863C7.72812 7.98772 4.10072 5.97978 1.67072 2.92163C1.2467 3.66992 1.0044 4.5381 1.0044 5.46262C1.0044 7.21343 1.87357 8.75912 3.19493 9.66486C2.38915 9.6403 1.62846 9.41062 0.96355 9.03503V9.09715C0.96355 11.5442 2.66103 13.5854 4.91495 14.0477C4.5022 14.1661 4.06691 14.2254 3.61754 14.2254C3.30058 14.2254 2.99067 14.195 2.69061 14.1358C3.31749 16.1408 5.13471 17.6013 7.29002 17.6403C5.60521 18.9953 3.48089 19.8028 1.17485 19.8028C0.777602 19.8028 0.384575 19.7797 0 19.7335C2.17926 21.1636 4.76845 22 7.54781 22C16.6057 22 21.5573 14.3077 21.5573 7.63525C21.5573 7.41567 21.5531 7.1961 21.5446 6.98086C22.5068 6.26869 23.3421 5.38028 24 4.36764Z" fill="black"/>
    </symbol>

    <symbol id="instagram-logo" viewBox="0 0 24 24" xmlns="http://www.w3.org/2000/svg">
        <path fill-rule="evenodd" clip-rule="evenodd" d="M12 0C15.259 0 15.6677 0.0138139 16.9476 0.0722133C18.2248 0.13047 19.0972 0.333343 19.8605 0.630008C20.6496 0.936629 21.3188 1.34695 21.9859 2.01406C22.6531 2.68123 23.0634 3.35044 23.37 4.13954C23.6667 4.90283 23.8695 5.77516 23.9278 7.05242C23.9862 8.33234 24 8.741 24 12C24 15.259 23.9862 15.6677 23.9278 16.9476C23.8695 18.2248 23.6667 19.0972 23.37 19.8605C23.0634 20.6496 22.6531 21.3188 21.9859 21.9859C21.3188 22.6531 20.6496 23.0634 19.8605 23.37C19.0972 23.6667 18.2248 23.8695 16.9476 23.9278C15.6677 23.9862 15.259 24 12 24C8.741 24 8.33234 23.9862 7.05242 23.9278C5.77516 23.8695 4.90283 23.6667 4.13954 23.37C3.35044 23.0634 2.68123 22.6531 2.01406 21.9859C1.34695 21.3188 0.936629 20.6496 0.630008 19.8605C0.333343 19.0972 0.13047 18.2248 0.0722133 16.9476C0.0138139 15.6677 0 15.259 0 12C0 8.741 0.0138139 8.33234 0.0722133 7.05242C0.13047 5.77516 0.333343 4.90283 0.630008 4.13954C0.936629 3.35044 1.34695 2.68123 2.01406 2.01406C2.68123 1.34695 3.35044 0.936629 4.13954 0.630008C4.90283 0.333343 5.77516 0.13047 7.05242 0.0722133C8.33234 0.0138139 8.741 0 12 0ZM12 2C8.74306 2 8.35725 2.01244 7.07104 2.07113C5.88177 2.12536 5.23591 2.32407 4.80609 2.49112C4.23673 2.71239 3.83039 2.97671 3.40358 3.40358C2.97671 3.83039 2.71239 4.23673 2.49112 4.80609C2.32407 5.23591 2.12536 5.88177 2.07113 7.07104C2.01244 8.35725 2 8.74306 2 12C2 15.2569 2.01244 15.6427 2.07113 16.929C2.12536 18.1182 2.32407 18.7641 2.49112 19.1939C2.71239 19.7633 2.97676 20.1696 3.40358 20.5964C3.83039 21.0233 4.23673 21.2876 4.80609 21.5089C5.23591 21.6759 5.88177 21.8746 7.07104 21.9289C8.35711 21.9876 8.74281 22 12 22C15.2572 22 15.6429 21.9876 16.929 21.9289C18.1182 21.8746 18.7641 21.6759 19.1939 21.5089C19.7633 21.2876 20.1696 21.0233 20.5964 20.5964C21.0233 20.1696 21.2876 19.7633 21.5089 19.1939C21.6759 18.7641 21.8746 18.1182 21.9289 16.929C21.9876 15.6427 22 15.2569 22 12C22 8.74306 21.9876 8.35725 21.9289 7.07104C21.8746 5.88177 21.6759 5.23591 21.5089 4.80609C21.2876 4.23673 21.0233 3.83039 20.5964 3.40358C20.1696 2.97671 19.7633 2.71239 19.1939 2.49112C18.7641 2.32407 18.1182 2.12536 16.929 2.07113C15.6427 2.01244 15.2569 2 12 2ZM12 6C15.3137 6 18 8.68627 18 12C18 15.3137 15.3137 18 12 18C8.68627 18 6 15.3137 6 12C6 8.68627 8.68627 6 12 6ZM12 16C14.2091 16 16 14.2091 16 12C16 9.79085 14.2091 8 12 8C9.79085 8 8 9.79085 8 12C8 14.2091 9.79085 16 12 16ZM20 5.50002C20 6.32846 19.3284 7 18.5 7C17.6716 7 17 6.32846 17 5.50002C17 4.67159 17.6716 4 18.5 4C19.3284 4 20 4.67159 20 5.50002Z" fill="black"/>
    </symbol>

    <symbol id="linkedin-logo" viewBox="0 0 24 24" xmlns="http://www.w3.org/2000/svg">
    <path fill-rule="evenodd" clip-rule="evenodd" d="M23 22H17.9835V14.8242C17.9835 12.9459 17.1988 11.6637 15.4733 11.6637C14.1535 11.6637 13.4195 12.529 13.0778 13.3629C12.9497 13.6622 12.9698 14.0792 12.9698 14.4961V22H8C8 22 8.06406 9.28877 8 8.13332H12.9698V10.3096C13.2633 9.35804 14.8514 8 17.3857 8C20.5298 8 23 9.99459 23 14.2896V22ZM3.48757 7H3.45775C1.9667 7 1 5.8984 1 4.50204C1 3.07851 1.99528 2 3.51615 2C5.03579 2 5.97018 3.07579 6 4.49796C6 5.89432 5.03579 7 3.48757 7ZM2 8H6V22H2V8Z" fill="black"/>
    </symbol>

    <symbol id="arrow-left-icon" viewBox="0 0 7 10" xmlns="http://www.w3.org/2000/svg">
        <path d="M6.01161 1.63233C6.2996 1.38034 6.32879 0.942595 6.07679 0.6546C5.8248 0.366606 5.38706 0.337422 5.09906 0.589418L6.01161 1.63233ZM5.09906 9.41011C5.38706 9.66211 5.8248 9.63292 6.07679 9.34493C6.32879 9.05693 6.2996 8.61919 6.01161 8.3672L5.09906 9.41011ZM1.40887 5.2605L1.86515 4.73903L1.40887 5.2605ZM6.01161 8.3672L1.86515 4.73903L0.952589 5.78196L5.09906 9.41011L6.01161 8.3672ZM1.86515 5.2605L6.01161 1.63233L5.09906 0.589418L0.95259 4.21758L1.86515 5.2605ZM1.86515 4.73903C2.02289 4.87707 2.02289 5.12247 1.86515 5.2605L0.95259 4.21758C0.479346 4.63167 0.479344 5.36787 0.952589 5.78196L1.86515 4.73903Z" fill="#737A91"/>
    </symbol>

    <symbol id="arrow-right-icon" viewBox="0 0 7 10" xmlns="http://www.w3.org/2000/svg">
        <path d="M0.654893 8.36767C0.366904 8.61966 0.337715 9.05741 0.589715 9.3454C0.841704 9.63339 1.27945 9.66258 1.56745 9.41058L0.654893 8.36767ZM1.56745 0.589889C1.27945 0.337889 0.841704 0.367077 0.589715 0.655066C0.337715 0.943066 0.366904 1.38081 0.654893 1.6328L1.56745 0.589889ZM5.25764 4.7395L4.80136 5.26097L5.25764 4.7395ZM0.654893 1.6328L4.80136 5.26097L5.71392 4.21804L1.56745 0.589889L0.654893 1.6328ZM4.80136 4.7395L0.654893 8.36767L1.56745 9.41058L5.71391 5.78242L4.80136 4.7395ZM4.80136 5.26097C4.64361 5.12293 4.64361 4.87753 4.80136 4.7395L5.71391 5.78242C6.18716 5.36833 6.18716 4.63213 5.71392 4.21804L4.80136 5.26097Z" fill="#737A91"/>
    </symbol>


</svg>